<?xml version="1.0" encoding="UTF-8" standalone="no"?>
<!DOCTYPE svg PUBLIC "-//W3C//DTD SVG 1.1//EN" "http://www.w3.org/Graphics/SVG/1.1/DTD/svg11.dtd">
<svg version="1.1" xmlns="http://www.w3.org/2000/svg" xmlns:xlink="http://www.w3.org/1999/xlink" preserveAspectRatio="xMidYMid meet" viewBox="0 0 640 640" width="640" height="640"><defs><path d="M354.63 7.9C335.18 7.9 316.34 15.8 302.36 29.78C275.01 57.19 56.21 276.48 28.86 303.89C14.27 317.87 6.37 336.71 6.37 356.16C6.37 356.16 6.37 571.93 6.37 624.81C6.37 631.49 11.84 636.35 17.92 636.35C18.61 636.35 22.05 636.35 28.25 636.35C27.52 636.35 27.12 636.35 27.04 636.35C14.88 633.92 20.35 622.98 25.21 617.51C31.65 611.03 63.87 578.61 121.85 520.27C121.85 520.27 121.85 520.27 121.85 520.27C253.74 388.38 385.02 256.49 516.91 124.6C526.39 114.63 602.24 34.89 611.73 24.92C613.55 23.1 615.98 21.88 619.02 21.88C623.27 21.27 627.53 24.31 629.35 28.57C629.64 29.17 631.05 32.21 633.61 37.68C633.61 35.86 633.61 34.85 633.61 34.64C634.21 20.06 622.67 7.9 608.08 7.9C538.18 7.9 405.32 7.9 354.63 7.9Z" id="hq7jLtTHY"></path></defs><g><g><g><use xlink:href="#hq7jLtTHY" opacity="1" fill="#c60d01" fill-opacity="1"></use><g><use xlink:href="#hq7jLtTHY" opacity="1" fill-opacity="0" stroke="#000000" stroke-width="1" stroke-opacity="0"></use></g></g></g></g></svg>