<?xml version="1.0" encoding="utf-8"?>
<!-- Generator: Adobe Illustrator 24.0.1, SVG Export Plug-In . SVG Version: 6.00 Build 0)  -->
<svg version="1.1" id="Layer_1" xmlns="http://www.w3.org/2000/svg" xmlns:xlink="http://www.w3.org/1999/xlink" x="0px" y="0px"
	 viewBox="0 0 105.3 105.1" style="enable-background:new 0 0 105.3 105.1;" xml:space="preserve">
<style type="text/css">
	.st0{fill:#2E5595;}
</style>
<g>
	<g>
		<g>
			<g>
				<path class="st0" d="M100.4,0.6c-6.3,0-62.7,0-87.7,0c-6.6,0-12,5.3-12,11.9C0.5,39,0.8,97,0.8,102.6c0,1.1,0.9,1.9,1.9,1.9h1.7
					H4.2c-2-0.4-1.1-2.2-0.3-3.1l16-16.1l0,0c21.8-21.8,43.6-43.6,65.4-65.4L101,3.5c0.3-0.3,0.7-0.5,1.2-0.5
					c0.7-0.1,1.4,0.5,1.7,1.1l0.7,1.5V5C104.7,2.6,102.8,0.6,100.4,0.6z"/>
			</g>
		</g>
	</g>
</g>
</svg>
