<?xml version="1.0" encoding="utf-8"?>
<!-- Generator: Adobe Illustrator 24.0.1, SVG Export Plug-In . SVG Version: 6.00 Build 0)  -->
<svg version="1.1" id="Layer_1" xmlns="http://www.w3.org/2000/svg" xmlns:xlink="http://www.w3.org/1999/xlink" x="0px" y="0px"
	 viewBox="0 0 105.3 105.1" style="enable-background:new 0 0 105.3 105.1;" xml:space="preserve">
<style type="text/css">
	.st0{fill:#2E5595;}
</style>
<g>
	<g>
		<g>
			<path class="st0" d="M100,1.2c-11.5,0-41.7,0-41.7,0c-3.2,0-6.3,1.3-8.6,3.6l-45,45.1C2.3,52.2,1,55.3,1,58.5c0,0,0,35.5,0,44.2
				c0,1.1,0.9,1.9,1.9,1.9h1.7H4.4c-2-0.4-1.1-2.2-0.3-3.1l15.9-16l0,0c21.7-21.7,43.3-43.4,65-65.1L100.6,4
				c0.3-0.3,0.7-0.5,1.2-0.5c0.7-0.1,1.4,0.4,1.7,1.1l0.7,1.5V5.6C104.3,3.2,102.4,1.2,100,1.2z"/>
		</g>
	</g>
</g>
</svg>
